<?xml version="1.0" encoding="UTF-8"?>
<svg xmlns="http://www.w3.org/2000/svg" xmlns:xlink="http://www.w3.org/1999/xlink" width="30px" height="30px" viewBox="0 0 30 30" version="1.1">
<g id="surface1">
<path style=" stroke:none;fill-rule:nonzero;fill:rgb(10.196078%,45.098039%,90.980392%);fill-opacity:1;" d="M 30 15 C 30 23.285156 23.285156 30 15 30 C 6.714844 30 0 23.285156 0 15 C 0 6.714844 6.714844 0 15 0 C 23.285156 0 30 6.714844 30 15 Z M 30 15 "/>
<path style=" stroke:none;fill-rule:nonzero;fill:rgb(9.411765%,35.294118%,73.72549%);fill-opacity:1;" d="M 19.945312 22.5 L 10.230469 22.5 C 9.054688 22.5 8.015625 21.792969 8.015625 20.628906 L 8.015625 21.480469 C 8.015625 22.644531 9.054688 23.527344 10.230469 23.527344 L 19.945312 23.527344 C 21.121094 23.527344 22.15625 22.644531 22.15625 21.480469 L 22.15625 20.628906 C 22.15625 21.792969 21.121094 22.5 19.945312 22.5 Z M 19.945312 22.5 "/>
<path style=" stroke:none;fill-rule:nonzero;fill:rgb(9.411765%,35.294118%,73.72549%);fill-opacity:1;" d="M 15 13.636719 C 13.242188 13.632812 11.855469 12.414062 11.761719 10.738281 L 11.761719 11.425781 C 11.761719 13.15625 13.210938 14.664062 15 14.664062 C 16.789062 14.664062 18.238281 13.15625 18.238281 11.425781 L 18.238281 10.738281 C 18.101562 12.425781 16.757812 13.644531 15 13.636719 Z M 15 13.636719 "/>
<path style=" stroke:none;fill-rule:nonzero;fill:rgb(100%,100%,100%);fill-opacity:1;" d="M 15 15.683594 C 11.578125 15.683594 8.011719 17.351562 8.011719 19.601562 L 8.011719 20.621094 C 8.011719 21.785156 8.964844 22.667969 10.140625 22.667969 L 20.023438 22.667969 C 21.199219 22.667969 22.152344 21.785156 22.152344 20.621094 L 22.152344 19.601562 C 22.15625 17.347656 18.421875 15.683594 15 15.683594 Z M 15 15.683594 "/>
<path style=" stroke:none;fill-rule:nonzero;fill:rgb(100%,100%,100%);fill-opacity:1;" d="M 18.238281 10.566406 C 18.238281 12.355469 16.789062 13.804688 15 13.804688 C 13.210938 13.804688 11.761719 12.355469 11.761719 10.566406 C 11.761719 8.777344 13.210938 7.324219 15 7.324219 C 16.789062 7.324219 18.238281 8.777344 18.238281 10.566406 Z M 18.238281 10.566406 "/>
</g>
</svg>
