<?xml version="1.0" encoding="UTF-8"?>
<svg xmlns="http://www.w3.org/2000/svg" xmlns:xlink="http://www.w3.org/1999/xlink" width="30px" height="30px" viewBox="0 0 30 30" version="1.1">
<g id="surface1">
<path style=" stroke:none;fill-rule:nonzero;fill:rgb(100%,100%,100%);fill-opacity:1;" d="M 22.894531 7.105469 L 7.105469 7.105469 L 7.105469 22.894531 L 22.894531 22.894531 Z M 22.894531 7.105469 "/>
<path style=" stroke:none;fill-rule:nonzero;fill:rgb(25.882353%,52.156863%,95.686275%);fill-opacity:1;" d="M 10.34375 19.355469 C 9.753906 18.957031 9.34375 18.371094 9.121094 17.601562 L 10.492188 17.039062 C 10.617188 17.511719 10.832031 17.878906 11.144531 18.140625 C 11.453125 18.402344 11.828125 18.527344 12.265625 18.527344 C 12.710938 18.527344 13.097656 18.394531 13.417969 18.121094 C 13.742188 17.847656 13.902344 17.5 13.902344 17.082031 C 13.902344 16.648438 13.734375 16.296875 13.394531 16.027344 C 13.054688 15.753906 12.628906 15.617188 12.117188 15.617188 L 11.328125 15.617188 L 11.328125 14.261719 L 12.039062 14.261719 C 12.476562 14.261719 12.84375 14.144531 13.144531 13.90625 C 13.445312 13.667969 13.59375 13.347656 13.59375 12.933594 C 13.59375 12.566406 13.460938 12.273438 13.191406 12.054688 C 12.921875 11.835938 12.585938 11.726562 12.171875 11.726562 C 11.769531 11.726562 11.449219 11.832031 11.210938 12.046875 C 10.976562 12.261719 10.796875 12.535156 10.695312 12.839844 L 9.339844 12.273438 C 9.519531 11.765625 9.847656 11.316406 10.332031 10.925781 C 10.816406 10.539062 11.433594 10.34375 12.183594 10.34375 C 12.738281 10.34375 13.238281 10.449219 13.679688 10.664062 C 14.121094 10.878906 14.46875 11.175781 14.71875 11.554688 C 14.96875 11.9375 15.09375 12.363281 15.09375 12.835938 C 15.09375 13.320312 14.976562 13.730469 14.746094 14.066406 C 14.511719 14.398438 14.226562 14.65625 13.886719 14.835938 L 13.886719 14.917969 C 14.324219 15.097656 14.707031 15.394531 14.988281 15.777344 C 15.273438 16.160156 15.417969 16.621094 15.417969 17.15625 C 15.417969 17.695312 15.28125 18.171875 15.011719 18.59375 C 14.738281 19.015625 14.359375 19.347656 13.882812 19.585938 C 13.402344 19.828125 12.863281 19.949219 12.265625 19.949219 C 11.574219 19.953125 10.933594 19.753906 10.34375 19.355469 Z M 18.757812 12.554688 L 17.253906 13.644531 L 16.503906 12.503906 L 19.199219 10.558594 L 20.234375 10.558594 L 20.234375 19.738281 L 18.757812 19.738281 Z M 18.757812 12.554688 "/>
<path style=" stroke:none;fill-rule:nonzero;fill:rgb(20.392157%,65.882353%,32.54902%);fill-opacity:1;" d="M 22.894531 22.894531 L 7.105469 22.894531 L 7.105469 30 L 22.894531 30 Z M 22.894531 22.894531 "/>
<path style=" stroke:none;fill-rule:nonzero;fill:rgb(25.882353%,52.156863%,95.686275%);fill-opacity:1;" d="M 22.894531 0 L 2.367188 0 C 1.058594 0 0 1.058594 0 2.367188 L 0 22.894531 L 7.105469 22.894531 L 7.105469 7.105469 L 22.894531 7.105469 Z M 22.894531 0 "/>
<path style=" stroke:none;fill-rule:nonzero;fill:rgb(9.411765%,50.196078%,21.960784%);fill-opacity:1;" d="M 0 22.894531 L 0 27.632812 C 0 28.941406 1.058594 30 2.367188 30 L 7.105469 30 L 7.105469 22.894531 Z M 0 22.894531 "/>
<path style=" stroke:none;fill-rule:nonzero;fill:rgb(98.431373%,73.72549%,1.568627%);fill-opacity:1;" d="M 30 7.105469 L 22.894531 7.105469 L 22.894531 22.894531 L 30 22.894531 Z M 30 7.105469 "/>
<path style=" stroke:none;fill-rule:nonzero;fill:rgb(9.803922%,40.392157%,82.352941%);fill-opacity:1;" d="M 30 7.105469 L 30 2.367188 C 30 1.058594 28.941406 0 27.632812 0 L 22.894531 0 L 22.894531 7.105469 Z M 30 7.105469 "/>
<path style=" stroke:none;fill-rule:nonzero;fill:rgb(91.764706%,26.27451%,20.784314%);fill-opacity:1;" d="M 22.894531 30 L 30 22.894531 L 22.894531 22.894531 Z M 22.894531 30 "/>
</g>
</svg>
