<?xml version="1.0" encoding="UTF-8"?>
<svg xmlns="http://www.w3.org/2000/svg" xmlns:xlink="http://www.w3.org/1999/xlink" width="30px" height="30px" viewBox="0 0 30 30" version="1.1">
<g id="surface1">
<path style=" stroke:none;fill-rule:evenodd;fill:rgb(0%,49.411765%,73.333333%);fill-opacity:1;" d="M 3.332031 30 L 26.667969 30 C 28.507812 30 30 28.507812 30 26.667969 L 30 3.332031 C 30 1.492188 28.507812 0 26.667969 0 L 3.332031 0 C 1.492188 0 0 1.492188 0 3.332031 L 0 26.667969 C 0 28.507812 1.492188 30 3.332031 30 Z M 3.332031 30 "/>
<path style=" stroke:none;fill-rule:evenodd;fill:rgb(100%,100%,100%);fill-opacity:1;" d="M 25.832031 25.832031 L 21.382812 25.832031 L 21.382812 18.25 C 21.382812 16.171875 20.589844 15.011719 18.945312 15.011719 C 17.15625 15.011719 16.222656 16.21875 16.222656 18.25 L 16.222656 25.832031 L 11.929688 25.832031 L 11.929688 11.390625 L 16.222656 11.390625 L 16.222656 13.335938 C 16.222656 13.335938 17.511719 10.949219 20.574219 10.949219 C 23.640625 10.949219 25.832031 12.820312 25.832031 16.6875 Z M 6.8125 9.496094 C 5.351562 9.496094 4.167969 8.304688 4.167969 6.832031 C 4.167969 5.359375 5.351562 4.167969 6.8125 4.167969 C 8.273438 4.167969 9.457031 5.359375 9.457031 6.832031 C 9.457031 8.304688 8.273438 9.496094 6.8125 9.496094 Z M 4.597656 25.832031 L 9.070312 25.832031 L 9.070312 11.390625 L 4.597656 11.390625 Z M 4.597656 25.832031 "/>
</g>
</svg>
