<?xml version="1.0" encoding="UTF-8"?>
<!DOCTYPE svg PUBLIC "-//W3C//DTD SVG 1.1//EN" "http://www.w3.org/Graphics/SVG/1.1/DTD/svg11.dtd">
<svg xmlns="http://www.w3.org/2000/svg" version="1.1" width="32px" height="32px" style="shape-rendering:geometricPrecision; text-rendering:geometricPrecision; image-rendering:optimizeQuality; fill-rule:evenodd; clip-rule:evenodd" xmlns:xlink="http://www.w3.org/1999/xlink">
<g><path style="opacity:1" fill="#a9a9a5" d="M 25.5,4.5 C 24.8333,9.16667 24.1667,13.8333 23.5,18.5C 23.8266,13.7863 23.4933,9.11965 22.5,4.5C 16.5,3.16667 10.5,3.16667 4.5,4.5C 3.50671,9.11965 3.17338,13.7863 3.5,18.5C 2.83333,13.8333 2.16667,9.16667 1.5,4.5C 1.57735,3.25025 2.24402,2.41691 3.5,2C 10.1667,1.33333 16.8333,1.33333 23.5,2C 24.756,2.41691 25.4226,3.25025 25.5,4.5 Z"/></g>
<g><path style="opacity:1" fill="#ab9e96" d="M 11.5,5.5 C 16.0685,5.08258 17.5685,7.08258 16,11.5C 15.1667,12.5 14.3333,13.5 13.5,14.5C 12.2655,12.6017 12.5989,10.935 14.5,9.5C 13.6086,8.41043 12.6086,8.41043 11.5,9.5C 10.3744,8.19165 10.3744,6.85832 11.5,5.5 Z"/></g>
<g><path style="opacity:0.114" fill="#a1ada3" d="M 12.5,15.5 C 14.337,15.6395 14.6704,16.3061 13.5,17.5C 12.7025,17.0431 12.3691,16.3764 12.5,15.5 Z"/></g>
<g><path style="opacity:1" fill="#9daba2" d="M 1.5,4.5 C 2.16667,9.16667 2.83333,13.8333 3.5,18.5C 5.40301,18.7959 7.06967,19.4625 8.5,20.5C 7.83333,20.8333 7.16667,21.1667 6.5,21.5C 5.06953,21.5792 3.73619,21.2458 2.5,20.5C 1.50515,15.2079 1.17182,9.8746 1.5,4.5 Z"/></g>
<g><path style="opacity:1" fill="#aaa4ae" d="M 25.5,4.5 C 25.8282,9.8746 25.4948,15.2079 24.5,20.5C 20.5705,21.4328 16.5705,21.7662 12.5,21.5C 12.5,20.8333 12.5,20.1667 12.5,19.5C 16.2343,19.6773 19.9009,19.3439 23.5,18.5C 24.1667,13.8333 24.8333,9.16667 25.5,4.5 Z"/></g>
<g><path style="opacity:0.78" fill="#a27f91" d="M 12.5,19.5 C 12.5,20.1667 12.5,20.8333 12.5,21.5C 12.1667,22.1667 11.8333,22.8333 11.5,23.5C 10.1805,24.9418 8.5138,25.6085 6.5,25.5C 6.5,24.1667 6.5,22.8333 6.5,21.5C 7.16667,21.1667 7.83333,20.8333 8.5,20.5C 8.43456,20.9382 8.60123,21.2716 9,21.5C 9.81595,20.1772 10.9826,19.5106 12.5,19.5 Z"/></g>
<g><path style="opacity:1" fill="#ac998b" d="M 11.5,23.5 C 15.4872,23.0097 19.1538,23.6764 22.5,25.5C 22.8333,26.8333 23.1667,28.1667 23.5,29.5C 19.748,26.7183 15.748,24.7183 11.5,23.5 Z"/></g>
<g><path style="opacity:1" fill="#aaa7a6" d="M 23.5,29.5 C 23.1667,28.1667 22.8333,26.8333 22.5,25.5C 23.1837,23.8148 24.517,22.8148 26.5,22.5C 27.7828,17.479 27.7828,12.479 26.5,7.5C 27.325,6.61432 28.325,6.28099 29.5,6.5C 29.8293,12.5368 29.4959,18.5368 28.5,24.5C 27.2638,25.2458 25.9305,25.5792 24.5,25.5C 24.7678,27.099 24.4345,28.4324 23.5,29.5 Z"/></g>
</svg>
